<?xml version="1.0" encoding="UTF-8" standalone="no"?>
<!DOCTYPE svg PUBLIC "-//W3C//DTD SVG 1.1//EN"
 "http://www.w3.org/Graphics/SVG/1.1/DTD/svg11.dtd">
<!-- Generated by graphviz version 12.1.0 (20240811.2233)
 -->
<!-- Pages: 1 -->
<svg width="344pt" height="118pt"
 viewBox="0.00 0.00 344.25 118.00" xmlns="http://www.w3.org/2000/svg" xmlns:xlink="http://www.w3.org/1999/xlink">
<g id="graph0" class="graph" transform="scale(1 1) rotate(0) translate(4 114)">
<polygon fill="white" stroke="none" points="-4,4 -4,-114 340.25,-114 340.25,4 -4,4"/>
<!-- 2325965741024 -->
<g id="node1" class="node">
<title>2325965741024</title>
<polygon fill="none" stroke="black" points="149.75,-73.5 149.75,-109.5 217.5,-109.5 217.5,-73.5 149.75,-73.5"/>
<text text-anchor="middle" x="183.62" y="-86.45" font-family="Times New Roman,serif" font-size="14.00">765QWE</text>
</g>
<!-- 2325965734640 -->
<g id="node2" class="node">
<title>2325965734640</title>
<polygon fill="none" stroke="black" points="0,-0.5 0,-36.5 191.25,-36.5 191.25,-0.5 0,-0.5"/>
<text text-anchor="middle" x="31.62" y="-13.45" font-family="Times New Roman,serif" font-size="14.00">765ASD</text>
<polyline fill="none" stroke="black" points="63.25,-0.5 63.25,-36.5"/>
<text text-anchor="middle" x="93.75" y="-13.45" font-family="Times New Roman,serif" font-size="14.00">765HJK</text>
<polyline fill="none" stroke="black" points="124.25,-0.5 124.25,-36.5"/>
<text text-anchor="middle" x="157.75" y="-13.45" font-family="Times New Roman,serif" font-size="14.00">765MCR</text>
</g>
<!-- 2325965741024&#45;&gt;2325965734640 -->
<g id="edge1" class="edge">
<title>2325965741024&#45;&gt;2325965734640</title>
<path fill="none" stroke="black" d="M162.32,-73.31C151.38,-64.48 137.85,-53.57 125.85,-43.89"/>
<polygon fill="black" stroke="black" points="128.19,-41.28 118.21,-37.73 123.8,-46.73 128.19,-41.28"/>
</g>
<!-- 2325965741072 -->
<g id="node3" class="node">
<title>2325965741072</title>
<polygon fill="none" stroke="black" points="209,-0.5 209,-36.5 336.25,-36.5 336.25,-0.5 209,-0.5"/>
<text text-anchor="middle" x="241" y="-13.45" font-family="Times New Roman,serif" font-size="14.00">765TYU</text>
<polyline fill="none" stroke="black" points="273,-0.5 273,-36.5"/>
<text text-anchor="middle" x="304.62" y="-13.45" font-family="Times New Roman,serif" font-size="14.00">765ZXC</text>
</g>
<!-- 2325965741024&#45;&gt;2325965741072 -->
<g id="edge2" class="edge">
<title>2325965741024&#45;&gt;2325965741072</title>
<path fill="none" stroke="black" d="M205.17,-73.31C216.24,-64.48 229.92,-53.57 242.06,-43.89"/>
<polygon fill="black" stroke="black" points="244.15,-46.69 249.79,-37.72 239.79,-41.22 244.15,-46.69"/>
</g>
</g>
</svg>
