<?xml version="1.0" encoding="UTF-8" standalone="no"?>
<!DOCTYPE svg PUBLIC "-//W3C//DTD SVG 1.1//EN"
 "http://www.w3.org/Graphics/SVG/1.1/DTD/svg11.dtd">
<!-- Generated by graphviz version 12.1.0 (20240811.2233)
 -->
<!-- Pages: 1 -->
<svg width="576pt" height="48pt"
 viewBox="0.00 0.00 576.00 48.37" xmlns="http://www.w3.org/2000/svg" xmlns:xlink="http://www.w3.org/1999/xlink">
<g id="graph0" class="graph" transform="scale(0.315098 0.315098) rotate(0) translate(4 149.5)">
<polygon fill="white" stroke="none" points="-4,4 -4,-149.5 1824,-149.5 1824,4 -4,4"/>
<!-- 2325965739488 -->
<g id="node1" class="node">
<title>2325965739488</title>
<polygon fill="none" stroke="black" points="277,-89.5 0,-89.5 0,-48.5 277,-48.5 277,-89.5"/>
<text text-anchor="middle" x="138.5" y="-72.2" font-family="Times New Roman,serif" font-size="14.00">DPI: 3060396800308 </text>
<text text-anchor="middle" x="138.5" y="-55.7" font-family="Times New Roman,serif" font-size="14.00">Nombre: &#160;CARLOS ANDRES &#160;PEREZ LOPEZ</text>
</g>
<!-- 2325965739824 -->
<g id="node2" class="node">
<title>2325965739824</title>
<polygon fill="none" stroke="black" points="635.75,-134.5 361.75,-134.5 361.75,-93.5 635.75,-93.5 635.75,-134.5"/>
<text text-anchor="middle" x="498.75" y="-117.2" font-family="Times New Roman,serif" font-size="14.00">DPI: 3060396800309 </text>
<text text-anchor="middle" x="498.75" y="-100.7" font-family="Times New Roman,serif" font-size="14.00">Nombre: &#160;Marta ELENA &#160;RAMIREZ GOMEZ</text>
</g>
<!-- 2325965739488&#45;&gt;2325965739824 -->
<g id="edge1" class="edge">
<title>2325965739488&#45;&gt;2325965739824</title>
<path fill="none" stroke="black" d="M220.13,-89.92C244.07,-95.38 270.46,-100.66 295,-104 312.8,-106.42 331.54,-108.28 350.15,-109.69"/>
<polygon fill="black" stroke="black" points="349.67,-113.17 359.89,-110.39 350.17,-106.19 349.67,-113.17"/>
<text text-anchor="middle" x="319.38" y="-112.01" font-family="Times New Roman,serif" font-size="14.00">siguiente</text>
</g>
<!-- 2325965739488&#45;&gt;2325965739824 -->
<g id="edge4" class="edge">
<title>2325965739488&#45;&gt;2325965739824</title>
<path fill="none" stroke="black" d="M288.59,-77.42C307.2,-79.1 325.94,-81.11 343.75,-83.5 362.52,-86.02 382.46,-89.41 401.53,-93.03"/>
<polygon fill="black" stroke="black" points="289.12,-73.95 278.86,-76.56 288.51,-80.92 289.12,-73.95"/>
<text text-anchor="middle" x="319.38" y="-86.7" font-family="Times New Roman,serif" font-size="14.00">anterior</text>
</g>
<!-- 2325965739728 -->
<g id="node4" class="node">
<title>2325965739728</title>
<polygon fill="none" stroke="black" points="999.75,-145.5 720.5,-145.5 720.5,-104.5 999.75,-104.5 999.75,-145.5"/>
<text text-anchor="middle" x="860.12" y="-128.2" font-family="Times New Roman,serif" font-size="14.00">DPI: 3060396800309 </text>
<text text-anchor="middle" x="860.12" y="-111.7" font-family="Times New Roman,serif" font-size="14.00">Nombre: &#160;SOFIA ELENA &#160;RAMIREZ GOMEZ</text>
</g>
<!-- 2325965739824&#45;&gt;2325965739728 -->
<g id="edge3" class="edge">
<title>2325965739824&#45;&gt;2325965739728</title>
<path fill="none" stroke="black" d="M636.13,-118.17C659.87,-118.9 684.68,-119.66 708.77,-120.4"/>
<polygon fill="black" stroke="black" points="708.54,-123.89 718.64,-120.7 708.76,-116.9 708.54,-123.89"/>
<text text-anchor="middle" x="678.12" y="-123.36" font-family="Times New Roman,serif" font-size="14.00">siguiente</text>
</g>
<!-- 2325965739824&#45;&gt;2325965739728 -->
<g id="edge6" class="edge">
<title>2325965739824&#45;&gt;2325965739728</title>
<path fill="none" stroke="black" d="M647.58,-97.19C666.08,-96.71 684.73,-97.01 702.5,-98.5 717.75,-99.78 733.75,-101.75 749.46,-104.05"/>
<polygon fill="black" stroke="black" points="647.48,-93.69 637.61,-97.53 647.73,-100.68 647.48,-93.69"/>
<text text-anchor="middle" x="678.12" y="-101.7" font-family="Times New Roman,serif" font-size="14.00">anterior</text>
</g>
<!-- 2325965739536 -->
<g id="node3" class="node">
<title>2325965739536</title>
<polygon fill="none" stroke="black" points="1820,-89.5 1486.75,-89.5 1486.75,-48.5 1820,-48.5 1820,-89.5"/>
<text text-anchor="middle" x="1653.38" y="-72.2" font-family="Times New Roman,serif" font-size="14.00">DPI: 3060396800320 </text>
<text text-anchor="middle" x="1653.38" y="-55.7" font-family="Times New Roman,serif" font-size="14.00">Nombre: &#160;LUCIA MARIA &#160;RODRIGUEZ HERNANDEZ</text>
</g>
<!-- 2325965739536&#45;&gt;2325965739488 -->
<g id="edge2" class="edge">
<title>2325965739536&#45;&gt;2325965739488</title>
<path fill="none" stroke="black" d="M1475.22,-59.03C1403.54,-55.78 1319.97,-53 1244.25,-53 497.75,-53 497.75,-53 497.75,-53 424.91,-53 343.82,-56.34 277.23,-59.97"/>
<polygon fill="black" stroke="black" points="1474.96,-62.52 1485.11,-59.48 1475.28,-55.53 1474.96,-62.52"/>
<text text-anchor="middle" x="860.12" y="-56.2" font-family="Times New Roman,serif" font-size="14.00">anterior</text>
</g>
<!-- 2325965739536&#45;&gt;2325965739488 -->
<g id="edge9" class="edge">
<title>2325965739536&#45;&gt;2325965739488</title>
<path fill="none" stroke="black" d="M1575.17,-48.02C1493.58,-27.72 1360.84,0 1244.25,0 497.75,0 497.75,0 497.75,0 400,0 289.91,-25.08 217.88,-44.99"/>
<polygon fill="black" stroke="black" points="217.24,-41.54 208.56,-47.61 219.13,-48.28 217.24,-41.54"/>
<text text-anchor="middle" x="860.12" y="-3.2" font-family="Times New Roman,serif" font-size="14.00">siguiente</text>
</g>
<!-- 2325965739632 -->
<g id="node5" class="node">
<title>2325965739632</title>
<polygon fill="none" stroke="black" points="1402,-134.5 1084.5,-134.5 1084.5,-93.5 1402,-93.5 1402,-134.5"/>
<text text-anchor="middle" x="1243.25" y="-117.2" font-family="Times New Roman,serif" font-size="14.00">DPI: 3060396800310 </text>
<text text-anchor="middle" x="1243.25" y="-100.7" font-family="Times New Roman,serif" font-size="14.00">Nombre: &#160;MIGUEL ANGEL &#160;SANCHEZ MARTINEZ</text>
</g>
<!-- 2325965739728&#45;&gt;2325965739632 -->
<g id="edge5" class="edge">
<title>2325965739728&#45;&gt;2325965739632</title>
<path fill="none" stroke="black" d="M1000.07,-120.99C1023.67,-120.31 1048.41,-119.59 1072.69,-118.89"/>
<polygon fill="black" stroke="black" points="1072.78,-122.39 1082.67,-118.61 1072.58,-115.4 1072.78,-122.39"/>
<text text-anchor="middle" x="1042.12" y="-123.36" font-family="Times New Roman,serif" font-size="14.00">siguiente</text>
</g>
<!-- 2325965739728&#45;&gt;2325965739632 -->
<g id="edge8" class="edge">
<title>2325965739728&#45;&gt;2325965739632</title>
<path fill="none" stroke="black" d="M981.87,-102.49C993.96,-100.87 1006.07,-99.48 1017.75,-98.5 1039.26,-96.69 1061.94,-96.39 1084.29,-97.02"/>
<polygon fill="black" stroke="black" points="981.7,-98.98 972.29,-103.84 982.68,-105.92 981.7,-98.98"/>
<text text-anchor="middle" x="1042.12" y="-101.7" font-family="Times New Roman,serif" font-size="14.00">anterior</text>
</g>
<!-- 2325965739632&#45;&gt;2325965739536 -->
<g id="edge7" class="edge">
<title>2325965739632&#45;&gt;2325965739536</title>
<path fill="none" stroke="black" d="M1402.4,-109.82C1424.72,-108.39 1447.34,-106.5 1468.75,-104 1493.74,-101.08 1520.43,-96.71 1545.51,-92.05"/>
<polygon fill="black" stroke="black" points="1545.86,-95.55 1555.04,-90.25 1544.56,-88.67 1545.86,-95.55"/>
<text text-anchor="middle" x="1444.38" y="-111.34" font-family="Times New Roman,serif" font-size="14.00">siguiente</text>
</g>
<!-- 2325965739632&#45;&gt;2325965739536 -->
<g id="edge10" class="edge">
<title>2325965739632&#45;&gt;2325965739536</title>
<path fill="none" stroke="black" d="M1365.43,-91.18C1383.67,-88.27 1402.3,-85.58 1420,-83.5 1441.48,-80.97 1464.13,-78.87 1486.52,-77.12"/>
<polygon fill="black" stroke="black" points="1364.94,-87.72 1355.63,-92.78 1366.07,-94.63 1364.94,-87.72"/>
<text text-anchor="middle" x="1444.38" y="-86.7" font-family="Times New Roman,serif" font-size="14.00">anterior</text>
</g>
</g>
</svg>
